<svg xmlns="http://www.w3.org/2000/svg" width="550" height="200" viewBox="0 0 550 200"><defs><style>.a{fill:#fff;}.b,.c{fill:#0f1024;}.c{stroke:#fff;stroke-width:3.79px;fill-rule:evenodd;}.d{fill:#db0000;}</style></defs><path class="a" d="M293.48,114.48l-3.91,31.74h-16l11-89.65h27.28a41.6,41.6,0,0,1,13.11,1.83,24.27,24.27,0,0,1,9,5.11,20.27,20.27,0,0,1,5.24,7.78,27.64,27.64,0,0,1,1.71,9.89,37.94,37.94,0,0,1-2.27,13.3A28.26,28.26,0,0,1,331.86,105a31.59,31.59,0,0,1-11.32,7,45.71,45.71,0,0,1-15.84,2.51ZM299.12,69,295,102h11.28a21.53,21.53,0,0,0,8.19-1.42,15.53,15.53,0,0,0,5.76-4,16.14,16.14,0,0,0,3.38-6.11,26.66,26.66,0,0,0,1.09-7.81,17.1,17.1,0,0,0-.87-5.58,10.85,10.85,0,0,0-2.67-4.31A12.36,12.36,0,0,0,316.7,70a18.67,18.67,0,0,0-6.42-1Z"/><path class="a" d="M388.65,146.22h-8.06c-1.86,0-3.17-.43-3.91-1.3a4.89,4.89,0,0,1-1.11-3.29l.49-8.68a37.77,37.77,0,0,1-9.48,10.39,19.38,19.38,0,0,1-11.6,3.81,16.06,16.06,0,0,1-6.73-1.43,15.2,15.2,0,0,1-5.45-4.24,20.79,20.79,0,0,1-3.66-7.07,33.29,33.29,0,0,1-1.33-10,43.32,43.32,0,0,1,1.42-11.1,43.55,43.55,0,0,1,10.42-18.85A40.64,40.64,0,0,1,368,83.26a40,40,0,0,1,11.32-1.58,60.61,60.61,0,0,1,8.58.62,38.42,38.42,0,0,1,8.46,2.23ZM361,134.63a8.56,8.56,0,0,0,5-1.74,20.07,20.07,0,0,0,4.62-4.8,42.77,42.77,0,0,0,4-7.23,65,65,0,0,0,3.23-8.93l2.42-19.22a29.2,29.2,0,0,0-3.1-.18,19.92,19.92,0,0,0-9.55,2.35,24.74,24.74,0,0,0-7.63,6.36,30.62,30.62,0,0,0-5.05,9.3,34,34,0,0,0-1.83,11.19q0,6.69,2.11,9.8A6.63,6.63,0,0,0,361,134.63Z"/><path class="a" d="M399.74,146.22l7.63-63.67h7.81a5.51,5.51,0,0,1,3.75,1.17,4.82,4.82,0,0,1,1.34,3.79l-.44,8.24a34.78,34.78,0,0,1,10.73-10.63,23.39,23.39,0,0,1,12.15-3.5,15.72,15.72,0,0,1,6.42,1.27,13.51,13.51,0,0,1,4.93,3.72,17.43,17.43,0,0,1,3.16,6,27.71,27.71,0,0,1,1.11,8.22c0,.78,0,1.58-.09,2.38s-.13,1.65-.22,2.51l-4.77,40.49H437.94q1.23-10.47,2.1-17.76t1.43-12.12l.87-7.6c.2-1.84.36-3.23.46-4.18s.17-1.58.19-1.89,0-.57,0-.78q0-4.1-1.49-5.92a5.64,5.64,0,0,0-4.65-1.83,11,11,0,0,0-5.27,1.49,20.36,20.36,0,0,0-5.21,4.21,32.07,32.07,0,0,0-4.52,6.58,41.6,41.6,0,0,0-3.35,8.55l-3.47,31.25Z"/><path class="a" d="M517.11,97.36a17.72,17.72,0,0,1-1.71,7.82,15.94,15.94,0,0,1-6.1,6.32,44,44,0,0,1-11.94,4.81,125.86,125.86,0,0,1-19.19,3.19v.8q0,15,12.71,15a19.76,19.76,0,0,0,8.53-1.8,17.8,17.8,0,0,0,2.85-1.67c.85-.62,1.63-1.18,2.36-1.68a18.64,18.64,0,0,1,2.13-1.27,5.11,5.11,0,0,1,2.3-.53,3.7,3.7,0,0,1,1.49.34,3.15,3.15,0,0,1,1.24,1l3.9,4.71a65.77,65.77,0,0,1-6.44,5.7,35.21,35.21,0,0,1-6.45,4,30.33,30.33,0,0,1-7,2.3,40.58,40.58,0,0,1-8,.74,26,26,0,0,1-10.11-1.89,22.23,22.23,0,0,1-7.75-5.33,24,24,0,0,1-5-8.31,31.67,31.67,0,0,1-1.77-10.88,44.47,44.47,0,0,1,1.09-9.86,43.77,43.77,0,0,1,3.13-9.18,39,39,0,0,1,5-8,34.15,34.15,0,0,1,6.73-6.33,31.11,31.11,0,0,1,8.24-4.15,30.56,30.56,0,0,1,9.64-1.49,24.67,24.67,0,0,1,8.78,1.43,19.71,19.71,0,0,1,6.26,3.69,15,15,0,0,1,3.75,5A13.32,13.32,0,0,1,517.11,97.36Zm-20.89-5a13.21,13.21,0,0,0-5.77,1.28,15.79,15.79,0,0,0-4.81,3.56,23.19,23.19,0,0,0-3.72,5.49,34.17,34.17,0,0,0-2.51,7,105.5,105.5,0,0,0,12.37-2.29,30.88,30.88,0,0,0,7.26-2.73,8.33,8.33,0,0,0,3.41-3.16,8.06,8.06,0,0,0,.83-3.6,5,5,0,0,0-.4-1.92,5,5,0,0,0-1.24-1.77,7,7,0,0,0-2.17-1.3A8.88,8.88,0,0,0,496.22,92.4Z"/><path class="a" d="M519.77,146.22l11.16-92.13H546l-11.16,92.13Z"/><path class="a" d="M276.52,56.57h-21a4.8,4.8,0,0,0-2.43.58,5.63,5.63,0,0,0-1.88,2l-15.75,25.6c-.28.45-.55.86-.8,1.23a11.11,11.11,0,0,0-.67,1.17l-11.82-28.3a3.92,3.92,0,0,0-1.38-1.76,5.54,5.54,0,0,0-2.8-.52H199.72l19.45,41.84-33.72,47.81h20.06a7.85,7.85,0,0,0,3.32-.71,6.56,6.56,0,0,0,2.71-2.49l16.37-25.93a8.49,8.49,0,0,0-2.72.07c-4.08.63-14.86,4.94-14.86,4.94l.12-2.13a2.81,2.81,0,0,1,1.4-1.93l3.67-2.35.28-3c.15-1.61,2.06-1,2.1-.21v1.72l4.1-2.36v-2.42c0-2.62,2.11-2,2.22-.75l.06,1.65,5.9-3.83c.84-8.28,1.15-11.7,3.28-11.63s1.84,4.05,1.32,11.88l5.41,4.84.33-1.88c.19-1.1,2.11-1.22,1.87,1l-.3,2.75,3.69,3,.33-1.55c.28-1.4,2.06-1.38,1.95.82l-.21,2.82c0,.1,3.17,2.72,3.17,2.72,1.63,1.23,1.24,2.51,1.24,2.51l-.27,1.8-13.49-7.84a3.67,3.67,0,0,0-3.22-.42L245.63,143a5.82,5.82,0,0,0,1.6,2.22,4.49,4.49,0,0,0,3.07,1h18l-21.6-48.79Z"/><circle class="a" cx="36.09" cy="63.5" r="30.3"/><path class="b" d="M36.09,95.59A32.1,32.1,0,1,1,68.19,63.5,32.13,32.13,0,0,1,36.09,95.59Zm0-60.6A28.51,28.51,0,1,0,64.6,63.5,28.53,28.53,0,0,0,36.09,35Z"/><rect class="b" x="44.24" y="43.12" width="6.21" height="1.79" rx="0.76" transform="translate(-14.45 63) rotate(-59.99)"/><rect class="b" x="10.49" y="62.6" width="6.21" height="1.79" rx="0.76"/><rect class="b" x="23.95" y="40.91" width="1.79" height="6.21" rx="0.76" transform="translate(-18.68 18.32) rotate(-30)"/><rect class="b" x="35.2" y="40.85" width="1.79" height="3.17" rx="0.76"/><rect class="b" x="16.95" y="51.38" width="1.79" height="3.17" rx="0.76" transform="translate(-36.94 41.94) rotate(-60)"/><rect class="b" x="16.27" y="73.14" width="3.17" height="1.79" rx="0.76" transform="translate(-34.64 18.86) rotate(-30.02)"/><circle class="b" cx="36.09" cy="63.5" r="2.88"/><circle class="a" cx="102.3" cy="100.59" r="65.39"/><path class="b" d="M102.3,161.7c-11,0-36.78-.21-39.71-2.19a71.3,71.3,0,0,1-25.77-31.28,70.76,70.76,0,0,1-4.15-13.33,70.85,70.85,0,0,1,10.71-54A71.08,71.08,0,0,1,88,31a71.07,71.07,0,0,1,64.54,19.4,72.29,72.29,0,0,1,8.69,10.52,70.91,70.91,0,0,1,0,79.44A71.71,71.71,0,0,1,142,159.51C139.09,161.49,113.27,161.7,102.3,161.7ZM68.87,150c1.8.68,14,1.39,33.43,1.39s31.64-.71,33.44-1.39a60,60,0,0,0,21.57-26.22,59.34,59.34,0,0,0,3.49-11.2A60.35,60.35,0,0,0,161,89.7,59.49,59.49,0,0,0,153.59,70a60.22,60.22,0,0,0-22.05-21.5,59.54,59.54,0,0,0-18.61-6.71l-6.52,11.32a4.41,4.41,0,0,1-.79,1,4.35,4.35,0,0,1-1,.75,4.53,4.53,0,0,1-1.12.45,4.79,4.79,0,0,1-1.19.15,4.64,4.64,0,0,1-1.17-.15,4.45,4.45,0,0,1-1.13-.45,4.35,4.35,0,0,1-1-.75,4.41,4.41,0,0,1-.79-1L91.68,41.83A59.63,59.63,0,0,0,42.6,100.59a60.43,60.43,0,0,0,1.21,12,59.56,59.56,0,0,0,9,21.34A60.22,60.22,0,0,0,68.87,150Z"/><path class="a" d="M102.3,31.4a69.5,69.5,0,0,1,13.93,1.41,69.3,69.3,0,0,1,35,18.88,69.86,69.86,0,0,1,8.46,10.24A69,69,0,0,1,166,73.68a67.93,67.93,0,0,1,4,13,69.47,69.47,0,0,1,0,27.85,67.71,67.71,0,0,1-4,13,68.67,68.67,0,0,1-6.38,11.75,69.7,69.7,0,0,1-18.7,18.7c-1.84,1.25-20.25,1.87-38.66,1.87s-36.81-.62-38.65-1.87A69.7,69.7,0,0,1,45,139.24a68.67,68.67,0,0,1-6.38-11.75,67.71,67.71,0,0,1-4-13,69.47,69.47,0,0,1,0-27.85,67.93,67.93,0,0,1,4-13A69,69,0,0,1,45,61.93a69.86,69.86,0,0,1,8.46-10.24A68.93,68.93,0,0,1,102.3,31.4m0,22.23a3.36,3.36,0,0,1-.71-.08,2.77,2.77,0,0,1-.67-.27,2.62,2.62,0,0,1-.6-.45,3.3,3.3,0,0,1-.48-.62l-.9-1.56-.89-1.56-.9-1.56L96.25,46l-.89-1.55-.9-1.56-.9-1.56-.89-1.56a61.24,61.24,0,0,0-20.53,7.15A62.27,62.27,0,0,0,49.39,69.07a61.52,61.52,0,0,0-7.66,20.28,62.16,62.16,0,0,0-1,11.24,61.54,61.54,0,0,0,18.07,43.54,62.18,62.18,0,0,0,9.12,7.53c1.64,1.1,18,1.66,34.41,1.66s32.78-.56,34.42-1.66A62.21,62.21,0,0,0,153.37,135a61.39,61.39,0,0,0,10.54-34.42,62.16,62.16,0,0,0-1-11.24,61.52,61.52,0,0,0-7.66-20.28,61.58,61.58,0,0,0-43.28-29.33l-.89,1.56-.9,1.56-.9,1.56L108.36,46l-.9,1.56-.9,1.56-.89,1.56-.9,1.56a3.3,3.3,0,0,1-.48.62,2.62,2.62,0,0,1-.6.45,2.77,2.77,0,0,1-.67.27,3.53,3.53,0,0,1-.72.08m0-26A73,73,0,0,0,50.73,49a73.77,73.77,0,0,0-8.92,10.8,72.84,72.84,0,0,0,0,81.56,74.3,74.3,0,0,0,8.92,10.8,73.18,73.18,0,0,0,10.8,8.91c1,.66,2.19,1.49,15.07,2,7,.3,16.08.47,25.7.47s18.76-.17,25.71-.47c12.87-.56,14.09-1.39,15.07-2a73.7,73.7,0,0,0,10.8-8.91,75,75,0,0,0,8.92-10.8,73.23,73.23,0,0,0,6.73-12.4,72.15,72.15,0,0,0,4.26-13.69,73.16,73.16,0,0,0,0-29.38,72.15,72.15,0,0,0-4.26-13.69,73.23,73.23,0,0,0-6.73-12.4A73.57,73.57,0,0,0,143.08,40.1,72.65,72.65,0,0,0,102.3,27.61ZM69.68,148.29A57.77,57.77,0,0,1,45.46,90a57,57,0,0,1,2.77-9.91A58.28,58.28,0,0,1,74,50.19,57.64,57.64,0,0,1,83.24,46,58.58,58.58,0,0,1,90.71,44l.46.8.9,1.56.9,1.56.89,1.55.9,1.56.9,1.56.9,1.56a6.62,6.62,0,0,0,2.51,2.49,6.52,6.52,0,0,0,1.58.63,6.61,6.61,0,0,0,1.65.21,6.75,6.75,0,0,0,3.24-.84A6.59,6.59,0,0,0,107,55.53a6.82,6.82,0,0,0,1.11-1.44l.89-1.55.9-1.56.89-1.56.9-1.55.9-1.56.89-1.56.47-.8A58.58,58.58,0,0,1,121.37,46a57.64,57.64,0,0,1,9.24,4.18,58.06,58.06,0,0,1,25.77,29.94A57,57,0,0,1,159.15,90a57.93,57.93,0,0,1-24.22,58.25c-2.53.61-14.53,1.24-32.63,1.24s-30.09-.63-32.62-1.24Z"/><path class="b" d="M102.3,56.1a44.49,44.49,0,1,0,44.49,44.49A44.54,44.54,0,0,0,102.3,56.1Zm0,3.68a40.85,40.85,0,0,1,40.81,40.81H111.45a9.15,9.15,0,0,1-18.29,0H61.5A40.84,40.84,0,0,1,102.3,59.78Z"/><path class="c" d="M148.19,162.86l-10-16.69a3.79,3.79,0,0,0-3.26-1.85h-6.11a3.8,3.8,0,0,1-3.28-1.89l-11.42-19.75a3.76,3.76,0,0,0-3.28-1.9H93.75a3.78,3.78,0,0,0-3.28,1.9L79.06,142.43a3.8,3.8,0,0,1-3.29,1.89H69.66a3.78,3.78,0,0,0-3.25,1.85l-10,16.67a3.79,3.79,0,0,0,3.25,5.74l85.27,0A3.79,3.79,0,0,0,148.19,162.86Z"/><path class="b" d="M116.55,48.15l-.36-.1a1.1,1.1,0,0,0-.85.11,1.11,1.11,0,0,0-.52.68l-1.08,4a1.17,1.17,0,0,0,.11.84,1.11,1.11,0,0,0,.68.52l.37.1h0a1.35,1.35,0,0,0,.29,0,1.08,1.08,0,0,0,.55-.15,1.11,1.11,0,0,0,.52-.68l1.08-4A1.11,1.11,0,0,0,116.55,48.15Z"/><path class="b" d="M90.87,52.87l-1.08-4a1.11,1.11,0,0,0-.52-.68,1.1,1.1,0,0,0-.85-.11l-.36.1a1.11,1.11,0,0,0-.68.52,1.07,1.07,0,0,0-.11.84l1.08,4a1.11,1.11,0,0,0,.52.68,1.08,1.08,0,0,0,.55.15,1.35,1.35,0,0,0,.29,0l.37-.1a1.07,1.07,0,0,0,.67-.52A1.13,1.13,0,0,0,90.87,52.87Z"/><rect class="b" x="123.17" y="53.18" width="11.37" height="2.84" rx="1.23" transform="translate(17.13 138.89) rotate(-60)"/><rect class="b" x="142.61" y="72.62" width="11.37" height="2.84" rx="1.23" transform="translate(-17.15 84.08) rotate(-30)"/><rect class="b" x="54.9" y="68.35" width="2.84" height="11.37" rx="1.23" transform="translate(-35.96 85.79) rotate(-60)"/><rect class="b" x="74.33" y="48.92" width="2.84" height="11.37" rx="1.23" transform="translate(-17.15 45.19) rotate(-30)"/><circle class="d" cx="102.3" cy="100.59" r="4.26"/><rect class="b" x="86.67" y="78.49" width="31.27" height="2.84" rx="1.14"/><rect class="b" x="93.78" y="86.49" width="17.06" height="2.84" rx="1.14"/><path class="b" d="M28,49.47h0a.85.85,0,0,0-.32,1.14l6.86,12.45a1.13,1.13,0,0,0,1.56.44h0a1.14,1.14,0,0,0,.41-1.58L29.14,49.76A.85.85,0,0,0,28,49.47Z"/></svg>